<svg xmlns="http://www.w3.org/2000/svg" version="1.1" xmlns:xlink="http://www.w3.org/1999/xlink" xmlns:svgjs="http://svgjs.dev/svgjs" viewBox="0 0 7.59437799689867 4.118875549018714"><g transform="matrix(1,0,0,1,1.2211200144282208,2.813067314054993)"><rect width="7.59437799689867" height="7.59437799689867" x="-1.2211200144282208" y="-4.550818537994971" fill="#fffdfa"></rect><g><path d=" M 0.2752802962839415 0.8388873483913477 Q 0.20743870667842038 0.8388873483913477 0.15068660768149403 0.816056044197182 Q 0.09393450868456771 0.7932247400030162 0.060666036858783315 0.7456051626837562 Q 0.027397565032998915 0.6979855853644962 0.027397565032998915 0.6236207659892135 Q 0.027397565032998915 0.5818720954627389 0.03913937861856988 0.5336001951665027 Q 0.05740442197390249 0.45662608388331527 0.0998054154773532 0.37965197260012784 Q 0.1422064089808039 0.3026778613169404 0.2015677998856349 0.2348362717114193 Q 0.2609291907904659 0.16699468210589818 0.33138007230389166 0.11415652097082885 Q 0.4018309538173174 0.061318359835759506 0.47684809616957635 0.030659179917879698 Q 0.5518652385218353 0 0.626230057897118 0 Q 0.6484090391143077 0 0.6718926662854496 0.003913937861857009 Q 0.7240785044435428 0.013046459539523325 0.7495191005456132 0.042400993503450723 Q 0.7749596966476836 0.07175552746737812 0.7749596966476836 0.10959026013199569 Q 0.7749596966476836 0.15394822256637486 0.7462574856607324 0.19830618500075403 Q 0.7175552746737811 0.2426641474351332 0.6712403433084735 0.2824558490306793 Q 0.6249254119431658 0.32224755062622534 0.5707826048541441 0.35355905352108125 Q 0.5166397977651225 0.38487055641593715 0.46445395960702923 0.4044402457252221 Q 0.4122681214489361 0.424009935034507 0.3718240968764139 0.42661922694241167 Q 0.3470358237513196 0.427923872896364 0.3470358237513196 0.41226812144893604 Q 0.3470358237513196 0.4044402457252221 0.35551602245200975 0.39596004702453197 Q 0.36399622115269986 0.3874798483238418 0.37965197260012784 0.3861752023698895 Q 0.4814143570084095 0.3770426806922232 0.5694779589001918 0.32420451955715385 Q 0.657541560791974 0.27136635842208445 0.7045088151342579 0.1800411416454214 Q 0.7149459827658765 0.16047145233613647 0.720816889558662 0.14024944004987538 Q 0.7266877963514474 0.1200274277636143 0.7266877963514474 0.10176238440828167 Q 0.7266877963514474 0.07306017342133042 0.7103797219270434 0.05283816113506934 Q 0.6940716475026392 0.03261614884880826 0.653627622930117 0.03261614884880826 Q 0.6092696604957378 0.03261614884880826 0.5492559466139306 0.059361390904830946 Q 0.4892422327321235 0.08610663296085375 0.42335761205753086 0.13437853325708993 Q 0.35747299138293825 0.1826504335533261 0.29419766261625024 0.24853505422791877 Q 0.2309223338495623 0.3144196749025114 0.1806934646223976 0.39204610916267496 Q 0.13046459539523295 0.46967254342283854 0.10306703036223402 0.5557791763836923 Q 0.08610663296085373 0.6079650145417854 0.08610663296085373 0.6523229769761647 Q 0.08610663296085373 0.7319063801672567 0.14090176302685156 0.7690887898548981 Q 0.1956968930928494 0.8062711995425396 0.2831081720076555 0.8062711995425396 Q 0.35877763733689055 0.8062711995425396 0.44945053113657746 0.7801782804634929 Q 0.5401234249362643 0.7540853613844464 0.626230057897118 0.6999425542954247 Q 0.7123366908579718 0.645799747206403 0.7710457587858266 0.562302406153454 Q 0.7749596966476836 0.5570838223376446 0.7801782804634929 0.5570838223376446 Q 0.7853968642793022 0.5570838223376446 0.7899631251181354 0.562302406153454 Q 0.7945293859569685 0.5675209899692633 0.7906154480951116 0.5727395737850726 Q 0.7227738584895904 0.6666740824696403 0.6347102565978082 0.7253831503974951 Q 0.546646654706026 0.7840922183253499 0.45271214602145826 0.8114897833583489 Q 0.35877763733689055 0.8388873483913477 0.2752802962839415 0.8388873483913477 M 0.9223802302051964 0.8232315969439198 Q 0.8310550134285334 0.8232315969439198 0.7788691752704402 0.7925724170260401 Q 0.7266833371123471 0.7619132371081603 0.7266833371123471 0.7058134610882102 Q 0.7266833371123471 0.6484090391143077 0.7606041319151077 0.5994848158410954 Q 0.7945249267178682 0.5505605925678829 0.8486677338068899 0.5146828288341939 Q 0.9028105408959115 0.47880506510050486 0.9621719318007425 0.4585830528142438 Q 1.0215333227055736 0.43836104052798264 1.0724145149097144 0.43836104052798264 Q 1.098507433988761 0.43836104052798264 1.098507433988761 0.44618891625169665 Q 1.098507433988761 0.45793072983726757 1.0711098689557619 0.45793072983726757 Q 1.022837968659526 0.45793072983726757 0.9660858696625996 0.4814143570084095 Q 0.9093337706656732 0.5048979841795515 0.8649758082312939 0.546646654706026 Q 0.8297503674745811 0.5779581576008819 0.8121376470962246 0.609921983472714 Q 0.7945249267178682 0.6418858093445461 0.7945249267178682 0.6692833743775449 Q 0.7945249267178682 0.7097273989500672 0.8323596593824858 0.7364726410060899 Q 0.8701943920471034 0.7632178830621127 0.9458638573763384 0.7632178830621127 Q 0.9902218198107176 0.7632178830621127 1.0358844281990491 0.7560423303153748 Q 1.0815470365873807 0.7488667775686371 1.118729446275022 0.7397342558909707 Q 1.1559118559626635 0.7306017342133044 1.1754815452719485 0.7253831503974951 Q 1.2237534455681844 0.7097273989500672 1.2726776688413968 0.6875484177328776 Q 1.321601892114609 0.6653694365156879 1.360741270733179 0.6373195485057128 Q 1.399880649351749 0.6092696604957378 1.4181456927070815 0.5805674495087866 Q 1.4285828603387003 0.5649116980613587 1.4331491211775336 0.5505605925678829 Q 1.4377153820163664 0.5362094870744074 1.4377153820163664 0.5231630275348841 Q 1.4377153820163664 0.4866329408242188 1.4050992331675585 0.46119234472214843 Q 1.37248308431875 0.435751748620078 1.321601892114609 0.41487741335684075 Q 1.2707206999104685 0.39400307809360346 1.213316277936566 0.3750857117612947 Q 1.1559118559626635 0.3561683454289859 1.1050306637585225 0.3352940101657486 Q 1.0541494715543818 0.3144196749025114 1.0215333227055736 0.28767443284648864 Q 0.9889171738567653 0.26092919079046584 0.9889171738567653 0.22309445812584827 Q 0.9889171738567653 0.1800411416454214 1.0208809997285972 0.1454680238656847 Q 1.0528448256004295 0.11089490608594799 1.103073694827594 0.08414966402992519 Q 1.1533025640547587 0.0574044219739025 1.2107069860286612 0.039791701595546014 Q 1.2681114080025637 0.02217898121718964 1.3202972461606568 0.013046459539523325 Q 1.37248308431875 0.003913937861857009 1.4064038791215108 0.003913937861857009 Q 1.5499149340562668 0.003913937861857009 1.5499149340562668 0.07566946532923513 Q 1.5499149340562668 0.10437167631618638 1.526431306885125 0.14220640898080394 Q 1.5159941392535063 0.16177609829008888 1.4964244499442214 0.17938881866844525 Q 1.4768547606349365 0.19700153904680173 1.4664175930033179 0.19700153904680173 Q 1.4585897172796038 0.19700153904680173 1.4585897172796038 0.18786901736913542 Q 1.4585897172796038 0.1839550795072784 1.4729408227730794 0.17156094294473134 Q 1.487291928266555 0.15916680638218417 1.5016430337600308 0.14090176302685153 Q 1.5159941392535063 0.1226367196715189 1.5159941392535063 0.10437167631618638 Q 1.5159941392535063 0.07697411128318743 1.4853349593356264 0.0626230057897118 Q 1.4546757794177467 0.04827190029623618 1.4050992331675585 0.04827190029623618 Q 1.3816156059964164 0.04827190029623618 1.3372576435620371 0.05544745304297394 Q 1.292899681127658 0.0626230057897118 1.2407138429695648 0.07827875723713973 Q 1.1885280048114717 0.09393450868456765 1.1402561045152355 0.1200274277636143 Q 1.0502355336925246 0.16960397401380278 1.0502355336925246 0.20482941477051575 Q 1.0502355336925246 0.2309223338495623 1.1011167258966656 0.25440596102070423 Q 1.1389514585612832 0.27136635842208445 1.1885280048114717 0.2896314017774171 Q 1.2381045510616602 0.3078964451327497 1.2889857432658012 0.328770780395987 Q 1.3398669354699417 0.34964511565922424 1.3835725749273449 0.37573803473827083 Q 1.427278214384748 0.4018309538173174 1.4540234564407708 0.4337947796891495 Q 1.4807686984967934 0.4657586055609816 1.4807686984967934 0.5062026301335039 Q 1.4807686984967934 0.5609977601995016 1.4207549846149863 0.618402182173404 Q 1.3737877302727024 0.6627601446077833 1.3118170474599666 0.7005948772724009 Q 1.249846364647231 0.7384296099370184 1.1813524520647338 0.7658271749700173 Q 1.1128585394822366 0.7932247400030162 1.0463215958306677 0.808228168473468 Q 0.9797846521790989 0.8232315969439198 0.9223802302051964 0.8232315969439198 M 2.013061062538558 0.8140990752662535 Q 2.0104517706306533 0.8140990752662535 1.998057634068106 0.8114897833583489 Q 1.985663497505559 0.8088804914504442 1.9745740068969642 0.8049665535885872 Q 1.9634845162883694 0.8010526157267303 1.962179870334417 0.795834031910921 Q 1.9595705784265123 0.7710457587858266 1.9752263298739403 0.7253831503974951 Q 1.9908820813213683 0.6797205420091635 2.017627323377391 0.6229684430122373 Q 2.044372565433414 0.566216344015311 2.073074776420365 0.5114212139493131 Q 2.0678561926045558 0.5114212139493131 2.06198528581177 0.5107688909723369 Q 2.0561143790189846 0.5101165679953608 2.049591149249223 0.5101165679953608 Q 2.033935397801795 0.5075072760874562 2.033935397801795 0.49576546250188513 Q 2.033935397801795 0.48924223273212347 2.048286503295271 0.48924223273212347 Q 2.0587236709268892 0.48924223273212347 2.0665515466506035 0.4898945557090997 Q 2.0743794223743173 0.4905468786860758 2.083511944051984 0.4905468786860758 Q 2.1096048631310302 0.4409703324358873 2.1317838443482198 0.4011786308403413 Q 2.1539628255654093 0.3613869292447952 2.163095347243076 0.340512593981558 Q 2.1709232229667896 0.32616148848808235 2.1735325148746942 0.3163766438334399 Q 2.1761418067825993 0.30659179917879736 2.1761418067825993 0.30137321536298806 Q 2.1761418067825993 0.2935453396392741 2.1735325148746942 0.2883267558234648 Q 2.1761418067825993 0.27267100437603686 2.1924498812070032 0.2465780852969902 Q 2.208757955631407 0.22048516621794367 2.2335462287565013 0.19439224713889702 Q 2.258334501881596 0.16829932805985048 2.287036712868547 0.150686607681494 Q 2.3157389238554984 0.13307388730313763 2.3405271969805925 0.13307388730313763 Q 2.3483550727043063 0.13307388730313763 2.3646631471287107 0.1376401481419708 Q 2.3809712215531147 0.14220640898080394 2.3966269730005427 0.15133893065847015 Q 2.4122827244479708 0.16047145233613647 2.4161966623098277 0.1774318497375168 Q 2.41750130826378 0.1800411416454214 2.41750130826378 0.1852597254612307 Q 2.41750130826378 0.18917366332308772 2.413587370401923 0.18917366332308772 Q 2.4109780784940185 0.18917366332308772 2.406411817655185 0.18721669439215927 Q 2.401845556816352 0.1852597254612307 2.3992362649084473 0.1852597254612307 Q 2.370534053921496 0.1852597254612307 2.3372655820957116 0.2120049675172535 Q 2.3039971102699273 0.2387502095732763 2.2687716695132143 0.2831081720076555 Q 2.2335462287565013 0.32746613444203465 2.1989731109767647 0.38160894153105634 Q 2.164399993197028 0.435751748620078 2.133088490302172 0.4905468786860758 Q 2.198320787999789 0.4879375867781712 2.271380961421119 0.4742388042616717 Q 2.3444411348424494 0.4605400217451723 2.4161966623098277 0.43705639457403034 Q 2.487952189777206 0.4135727674028884 2.5492705496129653 0.37965197260012784 Q 2.6105889094487247 0.3457311777973673 2.652337579975199 0.3026778613169404 Q 2.6980001883635305 0.25440596102070423 2.6980001883635305 0.20352476881656334 Q 2.6980001883635305 0.16569003615194577 2.6692979773765795 0.13307388730313763 Q 2.6405957663896285 0.10045773845432937 2.579277406553869 0.08349734105294904 Q 2.542747319843204 0.07306017342133042 2.4964323884778956 0.06784158960552111 Q 2.4501174571125883 0.0626230057897118 2.3966269730005427 0.0626230057897118 Q 2.313129631947594 0.0626230057897118 2.225066030055811 0.07697411128318743 Q 2.137002428164029 0.09132521677666305 2.0600283168808415 0.12067975074059045 Q 1.9830542055976543 0.15003428470451785 1.930868367439561 0.19439224713889702 Q 1.878682529281468 0.2387502095732763 1.8682453616498493 0.30006856940903576 Q 1.8643314237879922 0.33138007230389166 1.8799871752354202 0.34964511565922424 Q 1.8956429266828483 0.36791015901455687 1.918474230877014 0.37769500366919934 Q 1.9413055350711796 0.3874798483238418 1.954351994610703 0.39530772404755576 Q 1.9634845162883694 0.4031355997712698 1.9634845162883694 0.4083541835870791 Q 1.9634845162883694 0.4174867052647454 1.946524118886989 0.41487741335684075 Q 1.9282590755316564 0.41096347549498374 1.9015138334756336 0.3966123700015081 Q 1.874768591419611 0.3822612645080325 1.8545465791333497 0.35682066840596205 Q 1.8343245668470887 0.33138007230389166 1.8343245668470887 0.2974592775011311 Q 1.8343245668470887 0.29224069368532174 1.8349768898240648 0.28702210986951243 Q 1.835629212801041 0.2818035260537031 1.8369338587549935 0.27658494223789376 Q 1.8369338587549935 0.27528029628394146 1.8362815357780173 0.2681047435372037 Q 1.835629212801041 0.26092919079046584 1.835629212801041 0.25571060697465653 Q 1.843457088524755 0.21526658240213437 1.8754209143965872 0.17938881866844525 Q 1.9073847402684192 0.14351105493475624 1.9484810878179175 0.11546116692478114 Q 1.989577435367416 0.08741127891480605 2.024802876124129 0.07045088151342582 Q 2.0861212359598884 0.040444024572522164 2.172227868920742 0.02283130419416579 Q 2.258334501881596 0.005218583815809308 2.3522690105661637 0.005218583815809308 Q 2.4096734325400657 0.005218583815809308 2.4664255315369923 0.013046459539523325 Q 2.523177630533919 0.02087433526323723 2.576668114645964 0.037834732664617565 Q 2.651032934021247 0.0626230057897118 2.6921292815707454 0.11415652097082885 Q 2.733225629120244 0.16569003615194577 2.7293116912583866 0.22178981217189597 Q 2.7253977533965297 0.27528029628394146 2.6921292815707454 0.31833361276436833 Q 2.6588608097449606 0.3613869292447952 2.607327294563844 0.3933507551166273 Q 2.555793779382727 0.42531458098845937 2.493823096569991 0.4481458851826251 Q 2.4318524137572557 0.4709771893767909 2.369229407967544 0.4853282948702665 Q 2.3092156940857365 0.4983747544097898 2.2420264274571915 0.5048979841795515 Q 2.1748371608286465 0.5114212139493131 2.1213466767166014 0.5127258599032654 Q 2.0900351738217453 0.5688256359232156 2.065899223673627 0.618402182173404 Q 2.041763273525509 0.6679787284235926 2.030021459939938 0.6979855853644962 Q 2.0195842923083194 0.7266877963514474 2.0195842923083194 0.7384296099370184 Q 2.0195842923083194 0.756694653292351 2.033935397801795 0.756694653292351 Q 2.0522004411571277 0.756694653292351 2.073074776420365 0.7319063801672567 Q 2.0874258819138407 0.7149459827658765 2.0998200184763878 0.6999425542954247 Q 2.112214155038935 0.6849391258249728 2.1213466767166014 0.6875484177328776 Q 2.1226513226705537 0.6888530636868299 2.1226513226705537 0.6914623555947346 Q 2.1226513226705537 0.6979855853644962 2.113518800992887 0.709075075973091 Q 2.104386279315221 0.7201645665816858 2.1030816333612687 0.7214692125356381 Q 2.093949111683602 0.7345156720751614 2.0789456832131505 0.756694653292351 Q 2.063942254742699 0.7788736345095406 2.0476341803182945 0.7964863548878971 Q 2.0313261058938905 0.8140990752662535 2.013061062538558 0.8140990752662535 M 2.7658742667110694 0.32485684253413 Q 2.748913869309689 0.32485684253413 2.7306488259543564 0.3215952276492492 Q 2.712383782599024 0.31833361276436833 2.712383782599024 0.2974592775011311 Q 2.712383782599024 0.2935453396392741 2.72999650297738 0.27919423414579847 Q 2.7476092233557363 0.26484312865232285 2.7665265896880453 0.24983970018187107 Q 2.7854439560203543 0.2348362717114193 2.7893578938822112 0.2322269798035146 Q 2.8115368750994008 0.21396193644818196 2.81675545891521 0.21396193644818196 Q 2.8232786886849714 0.21396193644818196 2.81675545891521 0.2309223338495623 Q 2.8102322291454485 0.24788273125094262 2.8102322291454485 0.26092919079046584 Q 2.8102322291454485 0.26745242056022756 2.802404353421734 0.2831081720076555 Q 2.7945764776980204 0.2987639234550834 2.7841393100664016 0.3118103829946067 Q 2.773702142434783 0.32485684253413 2.7658742667110694 0.32485684253413 M 2.6236678577302652 0.7919200940490639 Q 2.6001842305591234 0.7919200940490639 2.5812668642268144 0.7814829264174453 Q 2.562349497894506 0.7710457587858266 2.5532169762168393 0.7423435477988753 Q 2.551912330262887 0.7384296099370184 2.551260007285911 0.7345156720751614 Q 2.5506076843089347 0.7306017342133044 2.5506076843089347 0.7253831503974951 Q 2.5506076843089347 0.6992902313184486 2.562349497894506 0.6601508526998786 Q 2.5740913114800765 0.6210114740813087 2.591051708881457 0.5844813873706436 Q 2.583223833157743 0.5949185550022622 2.5727866655261242 0.609921983472714 Q 2.562349497894506 0.6249254119431658 2.542779808585221 0.6484090391143077 Q 2.5375612247694117 0.653627622930117 2.5310379949996498 0.653627622930117 Q 2.5219054733219837 0.653627622930117 2.5219054733219837 0.6431904552984984 Q 2.5219054733219837 0.6353625795747844 2.527124057137793 0.6301439957589751 Q 2.5610448519405535 0.5870906792785482 2.5877900939965763 0.5531698844757876 Q 2.614535336052599 0.5192490896730271 2.627581795592122 0.49576546250188513 Q 2.627581795592122 0.49446081654793284 2.626929472615146 0.49380849357095663 Q 2.62627714963817 0.4931561705939805 2.62627714963817 0.4918515246400282 Q 2.62627714963817 0.4879375867781712 2.6301910875000267 0.4801097110544572 Q 2.6406282551316456 0.4487982081596013 2.6517177457402403 0.42727154991938787 Q 2.662807236348835 0.40574489167917444 2.6758536958883585 0.4031355997712698 Q 2.678462987796263 0.4031355997712698 2.6810722797041677 0.4024832767942936 Q 2.6836815716120723 0.4018309538173174 2.686290863519977 0.4018309538173174 Q 2.7006419690134527 0.4018309538173174 2.712383782599024 0.4083541835870791 Q 2.7241255961845945 0.41487741335684075 2.7241255961845945 0.427923872896364 Q 2.7241255961845945 0.439665686481935 2.7156453974839043 0.45662608388331527 Q 2.707165198783214 0.47358648128469555 2.694118739243691 0.4983747544097898 Q 2.6654165282567397 0.5583884682915969 2.6425852240625742 0.6073126915648093 Q 2.6197539198684083 0.6562369148380216 2.6171446279605037 0.6875484177328776 Q 2.6158399820065514 0.6927670015486869 2.6158399820065514 0.69733326238752 Q 2.6158399820065514 0.7018995232263532 2.6158399820065514 0.7071181070421625 Q 2.6158399820065514 0.7593039452002557 2.6497607768093117 0.7593039452002557 Q 2.6706351120725493 0.7593039452002557 2.7032512609213573 0.7364726410060899 Q 2.7358674097701656 0.7136413368119241 2.7697882045729263 0.6803728649861398 Q 2.8037089993756865 0.6471043931603553 2.8317588873856616 0.6164452132424756 Q 2.8598087753956367 0.5857860333245959 2.8702459430272556 0.5701302818771679 Q 2.8741598808891125 0.566216344015311 2.8780738187509693 0.566216344015311 Q 2.883292402566779 0.566216344015311 2.8865540174516595 0.5701302818771679 Q 2.8898156323365405 0.574044219739025 2.887206340428636 0.5805674495087866 Q 2.8754645268430647 0.6027464307259761 2.8474146388330897 0.6360149025517605 Q 2.8193647508231146 0.6692833743775449 2.784791633043378 0.7025518462033293 Q 2.7502185152636414 0.7358203180291137 2.717602366414833 0.7593039452002557 Q 2.7006419690134527 0.772350404739779 2.675201372911382 0.7821352493944215 Q 2.6497607768093117 0.7919200940490639 2.6236678577302652 0.7919200940490639 M 2.8128587209755977 0.795834031910921 Q 2.803726199297931 0.795834031910921 2.8076401371597886 0.7867015102332546 Q 2.8115540750216454 0.7788736345095406 2.821991242653264 0.7508237464995655 Q 2.8324284102848827 0.7227738584895904 2.846127192801382 0.6836344798710206 Q 2.8598259753178814 0.6444951012524507 2.874177080811357 0.6027464307259761 Q 2.888528186304833 0.5609977601995016 2.90092232286738 0.5244676734888364 Q 2.913316459429927 0.4879375867781712 2.921144335153641 0.4670632515149339 Q 2.923753627061546 0.4592353757912199 2.9263629189694504 0.44423194732076815 Q 2.928972210877355 0.4292285188503163 2.937452409578045 0.4168343822877692 Q 2.9459326082787354 0.4044402457252221 2.9668069435419726 0.4044402457252221 Q 3.0059463221605425 0.4044402457252221 3.0059463221605425 0.4227052890805547 Q 3.0059463221605425 0.4292285188503163 2.999423092390781 0.4448842702977443 Q 2.983767340943353 0.4801097110544572 2.9655022975880203 0.5257723194427888 Q 2.9472372542326877 0.5714349278311203 2.932886148739212 0.6118789524036424 Q 2.918535043245736 0.6523229769761647 2.9107071675220224 0.6745019581933542 Q 2.923753627061546 0.6562369148380216 2.9531081610254732 0.6223161200352612 Q 2.9824626949894006 0.5883953252325005 3.018992781700066 0.5492559466139306 Q 3.0555228684107307 0.5101165679953608 3.095314570006277 0.47358648128469555 Q 3.135106271601823 0.43705639457403034 3.16967938938156 0.41422509037986455 Q 3.2042525071612964 0.3913937861856988 3.2290407802863905 0.3913937861856988 Q 3.2603522831812466 0.3913937861856988 3.2603522831812466 0.42531458098845937 Q 3.2603522831812466 0.43705639457403034 3.253829053411485 0.4605400217451723 Q 3.242087239825914 0.4931561705939805 3.2238221964705813 0.5238153505118602 Q 3.2055571531152487 0.5544745304297399 3.1912060476217734 0.5883953252325005 Q 3.166417774496679 0.64971368506826 3.162503836634822 0.6875484177328776 Q 3.1611991906808696 0.6927670015486869 3.1611991906808696 0.69733326238752 Q 3.1611991906808696 0.7018995232263532 3.1611991906808696 0.7071181070421625 Q 3.1611991906808696 0.7593039452002557 3.1964246314375826 0.7593039452002557 Q 3.2159943207468675 0.7593039452002557 3.2486104695956755 0.7358203180291137 Q 3.281226618444484 0.7123366908579718 3.3157997362242204 0.6797205420091635 Q 3.3503728540039575 0.6471043931603553 3.377770419036956 0.6164452132424756 Q 3.4051679840699554 0.5857860333245959 3.4156051517015737 0.5701302818771679 Q 3.4195190895634306 0.566216344015311 3.423433027425288 0.566216344015311 Q 3.428651611241097 0.566216344015311 3.431913226125978 0.5701302818771679 Q 3.4351748410108587 0.574044219739025 3.432565549102954 0.5805674495087866 Q 3.4208237355173834 0.6027464307259761 3.3927738475074083 0.6360149025517605 Q 3.364723959497433 0.6692833743775449 3.3308031646946725 0.7025518462033293 Q 3.296882369891912 0.7358203180291137 3.2642662210431035 0.7593039452002557 Q 3.2446965317338186 0.772350404739779 3.2159943207468675 0.7827875723713976 Q 3.187292109759916 0.7932247400030162 3.158589898772965 0.7919200940490639 Q 3.1220598120622998 0.7880061561872069 3.1064040606148717 0.7664794979469934 Q 3.0907483091674437 0.7449528397067801 3.0907483091674437 0.7149459827658765 Q 3.0907483091674437 0.6797205420091635 3.1044470916839435 0.6399288404136175 Q 3.118145874200443 0.6001371388180715 3.135106271601823 0.5649116980613587 Q 3.1520666690032035 0.5296862573046457 3.162503836634822 0.5114212139493131 Q 3.1729410042664408 0.4905468786860758 3.1729410042664408 0.47880506510050486 Q 3.1729410042664408 0.46836789746888624 3.1638084825887742 0.46836789746888624 Q 3.154675960911108 0.46836789746888624 3.1364109175557755 0.4801097110544572 Q 3.118145874200443 0.4918515246400282 3.086834371305587 0.5205537356269794 Q 3.0581321603186358 0.5453420087520737 3.0255160114698274 0.5851337103476197 Q 2.992899862621019 0.6249254119431658 2.9622406827031393 0.6666740824696403 Q 2.9315815027852596 0.7084227529961148 2.9087501985910937 0.7384296099370184 Q 2.8859188943969283 0.768436466877922 2.8767863727192617 0.7736550506937313 Q 2.8702631429495002 0.7775689885555883 2.8474318387553343 0.7867015102332546 Q 2.8246005345611684 0.795834031910921 2.8128587209755977 0.795834031910921 M 3.422117551890663 0.8441059322071571 Q 3.4077664463971877 0.8441059322071571 3.393415340903712 0.8401919943453001 Q 3.3790642354102363 0.8362780564834431 3.3725410056404748 0.8245362428978722 Q 3.3673224218246656 0.8140990752662535 3.373845651594427 0.7990956467958017 Q 3.3803688813641886 0.7840922183253499 3.3921106949497597 0.772350404739779 Q 3.402547862581378 0.7619132371081603 3.4188559370057825 0.7514760694765417 Q 3.4351640114301865 0.741038901844923 3.453429054785519 0.7345156720751614 L 3.4560383466934237 0.7345156720751614 Q 3.4625615764631856 0.7345156720751614 3.4625615764631856 0.7390819329139946 Q 3.4625615764631856 0.7436481937528278 3.457342992647376 0.7475621316146848 Q 3.433859365476234 0.7593039452002557 3.4208129059367107 0.7762643426016359 Q 3.4116803842590446 0.7867015102332546 3.4116803842590446 0.7984433238188255 Q 3.4116803842590446 0.8193176590820628 3.4364686573841388 0.8193176590820628 Q 3.463866222417138 0.8193176590820628 3.49583004828897 0.8030095846576587 Q 3.527793874160802 0.7867015102332546 3.5571484081247293 0.7599562681772318 Q 3.5865029420886567 0.733211026121209 3.6047679854439894 0.7032041691803055 Q 3.623033028799322 0.6731973122394019 3.623033028799322 0.645799747206403 Q 3.623033028799322 0.6275347038510704 3.603463339490037 0.6125312753806187 Q 3.583893650180752 0.5975278469101668 3.5604100230096103 0.5851337103476197 Q 3.536926395838468 0.5727395737850726 3.5251845822528973 0.5649116980613587 Q 3.5108334767594216 0.5544745304297399 3.4990916631738505 0.5433850398211452 Q 3.4873498495882798 0.5322955492125504 3.480826619818518 0.5192490896730271 Q 3.4703894521868994 0.5375141330283597 3.4540813777624955 0.5629547291304301 Q 3.437773303338091 0.5883953252325005 3.4155943221209015 0.6157928902654994 Q 3.4077664463971877 0.6236207659892135 3.3999385706734735 0.6236207659892135 Q 3.3921106949497597 0.6236207659892135 3.3921106949497597 0.6170975362194517 Q 3.3921106949497597 0.6131835983575948 3.398633924719521 0.6040510766799285 Q 3.433859365476234 0.562302406153454 3.4508197628776145 0.5270769653967411 Q 3.467780160278995 0.4918515246400282 3.4743033900487563 0.47358648128469555 Q 3.4795219738645655 0.435751748620078 3.5095288308054693 0.4018309538173174 Q 3.539535687746373 0.36791015901455687 3.5825890042268 0.3424695629124864 Q 3.6256423207072266 0.31702896681041604 3.670652606118582 0.3026778613169404 Q 3.7156628915299375 0.2883267558234648 3.7508883322866504 0.2883267558234648 Q 3.786113773043363 0.2883267558234648 3.813511338076362 0.30137321536298806 Q 3.840908903109361 0.3144196749025114 3.840908903109361 0.34312188588946263 Q 3.840908903109361 0.35877763733689055 3.8317763814316947 0.3770426806922232 Q 3.8200345678461236 0.4018309538173174 3.792637002813125 0.42140064312660236 Q 3.7913323568591726 0.4227052890805547 3.7887230649512675 0.4227052890805547 Q 3.778285897319649 0.4227052890805547 3.778285897319649 0.4135727674028884 Q 3.778285897319649 0.40704953763312673 3.7848091270894106 0.4005263078633651 Q 3.7952462947210295 0.3913937861856988 3.801769524490791 0.3783473266461755 Q 3.8082927542605525 0.3653008671066522 3.8082927542605525 0.35355905352108125 Q 3.8082927542605525 0.3300754263499393 3.7808951892275537 0.3300754263499393 Q 3.761325499918269 0.3300754263499393 3.7352325808392224 0.3372509790966771 Q 3.7091396617601755 0.34442653184341493 3.6850037116120578 0.3542113764980574 Q 3.6608677614639396 0.36399622115269986 3.6452120100165115 0.3718240968764139 Q 3.612595861167703 0.3874798483238418 3.5851982961347044 0.4103111525180076 Q 3.5578007311017057 0.43314245671217333 3.533012457976611 0.4670632515149339 Q 3.516052060575231 0.48924223273212347 3.516052060575231 0.5088119220414085 Q 3.516052060575231 0.5322955492125504 3.547363563470087 0.5518652385218353 Q 3.5799797123188952 0.5701302818771679 3.611943538190727 0.5870906792785482 Q 3.643907364062559 0.6040510766799285 3.6660863452797487 0.6236207659892135 Q 3.6882653264969383 0.6431904552984984 3.6882653264969383 0.6705880203314973 Q 3.6882653264969383 0.7005948772724009 3.6504305938323207 0.7423435477988753 Q 3.626946966661179 0.768436466877922 3.587155265065633 0.7919200940490639 Q 3.547363563470087 0.8154037212202059 3.503005601035708 0.8297548267136815 Q 3.4586476386013283 0.8441059322071571 3.422117551890663 0.8441059322071571 M 3.9087772481494847 0.7932247400030162 Q 3.8722471614388194 0.7932247400030162 3.8448495964058207 0.7762643426016359 Q 3.799186988017489 0.7488667775686371 3.799186988017489 0.6771112501012589 Q 3.799186988017489 0.6471043931603553 3.8096241556491077 0.6079650145417854 Q 3.818756677326774 0.5753488656929773 3.842240304497916 0.5368618100513836 Q 3.865723931669058 0.4983747544097898 3.89768775754089 0.46314931365307693 Q 3.929651583412722 0.427923872896364 3.9674863160773395 0.40574489167917444 Q 4.005321048741957 0.3835659104619848 4.043155781406575 0.3835659104619848 Q 4.058811532854002 0.3835659104619848 4.070553346439573 0.3874798483238418 Q 4.086209097887002 0.3926984321396511 4.097298588495597 0.4063972146561506 Q 4.108388079104191 0.42009599717265006 4.108388079104191 0.4409703324358873 Q 4.108388079104191 0.46314931365307693 4.097298588495597 0.4657586055609816 Q 4.086209097887002 0.46836789746888624 4.086209097887002 0.4605400217451723 Q 4.086209097887002 0.45793072983726757 4.086861420863977 0.4553214379293629 Q 4.087513743840954 0.45271214602145826 4.087513743840954 0.45140750006750596 Q 4.087513743840954 0.4409703324358873 4.081642837048168 0.4324901337351972 Q 4.0757719302553825 0.424009935034507 4.060116178807955 0.424009935034507 Q 4.039241843544717 0.424009935034507 4.008582663626838 0.44618891625169665 Q 3.9779234837089583 0.46836789746888624 3.945959657837126 0.5055503071565276 Q 3.913995831965294 0.542732716844169 3.889859881817176 0.5870906792785482 Q 3.865723931669058 0.6314486417129274 3.8578960559453437 0.6758066041473065 Q 3.8565914099913914 0.6823298339170683 3.8559390870144155 0.6882007407098537 Q 3.855286764037439 0.6940716475026392 3.855286764037439 0.7005948772724009 Q 3.855286764037439 0.7306017342133044 3.8689855465539384 0.7508237464995655 Q 3.8826843290704383 0.7710457587858266 3.9126911860113416 0.7710457587858266 Q 3.949221272722007 0.7710457587858266 3.9831420675247675 0.7429958707758516 Q 4.017062862327528 0.7149459827658765 4.043808104383551 0.6758066041473065 Q 4.070553346439573 0.6366672255287367 4.083599805979097 0.6066603685878331 Q 4.094036973610716 0.5831767414166912 4.097950911472572 0.566216344015311 Q 4.101864849334429 0.5492559466139306 4.101864849334429 0.5375141330283597 Q 4.101864849334429 0.5270769653967411 4.099907880403501 0.5192490896730271 Q 4.097950911472572 0.5114212139493131 4.0953416195646675 0.5062026301335039 Q 4.092732327656763 0.4983747544097898 4.092732327656763 0.49446081654793284 Q 4.092732327656763 0.48402364891631416 4.101212526357453 0.47750041914655256 Q 4.109692725058143 0.4709771893767909 4.11882524673581 0.4709771893767909 Q 4.1266531224595235 0.4709771893767909 4.13578564413719 0.4761957731926002 Q 4.1462228117688085 0.47880506510050486 4.1644878551241415 0.4801097110544572 Q 4.182752898479474 0.4814143570084095 4.203627233742711 0.4814143570084095 Q 4.225806214959901 0.4814143570084095 4.248637519154067 0.4801097110544572 Q 4.271468823348233 0.47880506510050486 4.288429220749612 0.47489112723864785 Q 4.291038512657517 0.47358648128469555 4.296257096473327 0.47358648128469555 Q 4.3053896181509925 0.47358648128469555 4.3053896181509925 0.47880506510050486 Q 4.3053896181509925 0.48402364891631416 4.296257096473327 0.4879375867781712 Q 4.250594488084995 0.5088119220414085 4.214716724351306 0.5101165679953608 Q 4.178838960617616 0.5114212139493131 4.15274604153857 0.5114212139493131 Q 4.155355333446475 0.5440373627981213 4.138394936045095 0.5812197724857627 Q 4.121434538643714 0.618402182173404 4.103169495288382 0.6471043931603553 Q 4.080990514071193 0.6797205420091635 4.052288303084241 0.7136413368119241 Q 4.02358609209729 0.7475621316146848 3.9883606513405767 0.7703934358088504 Q 3.9531352105838637 0.7932247400030162 3.9087772481494847 0.7932247400030162 M 4.223214122974241 0.795834031910921 Q 4.2140816012965745 0.795834031910921 4.217995539158432 0.7867015102332546 Q 4.221909477020288 0.7788736345095406 4.232346644651908 0.7508237464995655 Q 4.242783812283526 0.7227738584895904 4.256482594800025 0.6836344798710206 Q 4.270181377316525 0.6444951012524507 4.28453248281 0.6027464307259761 Q 4.298883588303476 0.5609977601995016 4.311277724866023 0.5244676734888364 Q 4.32367186142857 0.4879375867781712 4.331499737152284 0.4670632515149339 Q 4.334109029060189 0.4592353757912199 4.336718320968093 0.44423194732076815 Q 4.339327612875998 0.4292285188503163 4.347807811576688 0.4168343822877692 Q 4.356288010277378 0.4044402457252221 4.377162345540616 0.4044402457252221 Q 4.416301724159186 0.4044402457252221 4.416301724159186 0.4227052890805547 Q 4.416301724159186 0.4292285188503163 4.409778494389424 0.4448842702977443 Q 4.394122742941996 0.4801097110544572 4.375857699586663 0.5257723194427888 Q 4.357592656231331 0.5714349278311203 4.343241550737855 0.6118789524036424 Q 4.3288904452443795 0.6523229769761647 4.321062569520666 0.6745019581933542 Q 4.334109029060189 0.6562369148380216 4.3634635630241165 0.6223161200352612 Q 4.3928180969880435 0.5883953252325005 4.429348183698709 0.5492559466139306 Q 4.465878270409374 0.5101165679953608 4.50566997200492 0.47358648128469555 Q 4.5454616736004665 0.43705639457403034 4.580034791380203 0.41422509037986455 Q 4.61460790915994 0.3913937861856988 4.639396182285034 0.3913937861856988 Q 4.67070768517989 0.3913937861856988 4.67070768517989 0.42531458098845937 Q 4.67070768517989 0.43705639457403034 4.664184455410128 0.4605400217451723 Q 4.652442641824558 0.4931561705939805 4.634177598469225 0.5238153505118602 Q 4.615912555113892 0.5544745304297399 4.601561449620417 0.5883953252325005 Q 4.576773176495323 0.64971368506826 4.572859238633465 0.6875484177328776 Q 4.571554592679513 0.6927670015486869 4.571554592679513 0.69733326238752 Q 4.571554592679513 0.7018995232263532 4.571554592679513 0.7071181070421625 Q 4.571554592679513 0.7593039452002557 4.606780033436226 0.7593039452002557 Q 4.626349722745511 0.7593039452002557 4.658965871594319 0.7358203180291137 Q 4.6915820204431276 0.7123366908579718 4.726155138222864 0.6797205420091635 Q 4.760728256002601 0.6471043931603553 4.7881258210355995 0.6164452132424756 Q 4.815523386068598 0.5857860333245959 4.8259605537002175 0.5701302818771679 Q 4.829874491562074 0.566216344015311 4.833788429423931 0.566216344015311 Q 4.8390070132397405 0.566216344015311 4.842268628124621 0.5701302818771679 Q 4.845530243009502 0.574044219739025 4.842920951101597 0.5805674495087866 Q 4.831179137516027 0.6027464307259761 4.803129249506052 0.6360149025517605 Q 4.7750793614960765 0.6692833743775449 4.741158566693316 0.7025518462033293 Q 4.707237771890555 0.7358203180291137 4.674621623041747 0.7593039452002557 Q 4.655051933732462 0.772350404739779 4.626349722745511 0.7827875723713976 Q 4.597647511758559 0.7932247400030162 4.568945300771608 0.7919200940490639 Q 4.5324152140609435 0.7880061561872069 4.516759462613515 0.7664794979469934 Q 4.501103711166087 0.7449528397067801 4.501103711166087 0.7149459827658765 Q 4.501103711166087 0.6797205420091635 4.514802493682587 0.6399288404136175 Q 4.528501276199086 0.6001371388180715 4.5454616736004665 0.5649116980613587 Q 4.562422071001847 0.5296862573046457 4.572859238633465 0.5114212139493131 Q 4.583296406265084 0.4905468786860758 4.583296406265084 0.47880506510050486 Q 4.583296406265084 0.46836789746888624 4.574163884587418 0.46836789746888624 Q 4.565031362909751 0.46836789746888624 4.546766319554418 0.4801097110544572 Q 4.528501276199086 0.4918515246400282 4.49718977330423 0.5205537356269794 Q 4.468487562317279 0.5453420087520737 4.435871413468471 0.5851337103476197 Q 4.403255264619663 0.6249254119431658 4.372596084701783 0.6666740824696403 Q 4.341936904783903 0.7084227529961148 4.3191056005897375 0.7384296099370184 Q 4.296274296395572 0.768436466877922 4.287141774717905 0.7736550506937313 Q 4.280618544948143 0.7775689885555883 4.257787240753978 0.7867015102332546 Q 4.234955936559812 0.795834031910921 4.223214122974241 0.795834031910921 M 4.832472953889306 0.8441059322071571 Q 4.818121848395831 0.8441059322071571 4.803770742902355 0.8401919943453001 Q 4.78941963740888 0.8362780564834431 4.782896407639118 0.8245362428978722 Q 4.777677823823309 0.8140990752662535 4.78420105359307 0.7990956467958017 Q 4.790724283362832 0.7840922183253499 4.802466096948403 0.772350404739779 Q 4.812903264580021 0.7619132371081603 4.829211339004425 0.7514760694765417 Q 4.84551941342883 0.741038901844923 4.863784456784162 0.7345156720751614 L 4.866393748692067 0.7345156720751614 Q 4.872916978461829 0.7345156720751614 4.872916978461829 0.7390819329139946 Q 4.872916978461829 0.7436481937528278 4.86769839464602 0.7475621316146848 Q 4.8442147674748774 0.7593039452002557 4.8311683079353545 0.7762643426016359 Q 4.822035786257688 0.7867015102332546 4.822035786257688 0.7984433238188255 Q 4.822035786257688 0.8193176590820628 4.846824059382782 0.8193176590820628 Q 4.874221624415781 0.8193176590820628 4.906185450287613 0.8030095846576587 Q 4.938149276159445 0.7867015102332546 4.967503810123373 0.7599562681772318 Q 4.9968583440873005 0.733211026121209 5.015123387442633 0.7032041691803055 Q 5.033388430797965 0.6731973122394019 5.033388430797965 0.645799747206403 Q 5.033388430797965 0.6275347038510704 5.01381874148868 0.6125312753806187 Q 4.994249052179395 0.5975278469101668 4.970765425008254 0.5851337103476197 Q 4.947281797837111 0.5727395737850726 4.93553998425154 0.5649116980613587 Q 4.921188878758065 0.5544745304297399 4.909447065172494 0.5433850398211452 Q 4.897705251586923 0.5322955492125504 4.891182021817161 0.5192490896730271 Q 4.880744854185543 0.5375141330283597 4.864436779761139 0.5629547291304301 Q 4.848128705336735 0.5883953252325005 4.825949724119545 0.6157928902654994 Q 4.818121848395831 0.6236207659892135 4.810293972672117 0.6236207659892135 Q 4.802466096948403 0.6236207659892135 4.802466096948403 0.6170975362194517 Q 4.802466096948403 0.6131835983575948 4.808989326718165 0.6040510766799285 Q 4.8442147674748774 0.562302406153454 4.861175164876258 0.5270769653967411 Q 4.878135562277638 0.4918515246400282 4.8846587920474 0.47358648128469555 Q 4.889877375863209 0.435751748620078 4.919884232804113 0.4018309538173174 Q 4.949891089745016 0.36791015901455687 4.992944406225443 0.3424695629124864 Q 5.03599772270587 0.31702896681041604 5.081008008117225 0.3026778613169404 Q 5.12601829352858 0.2883267558234648 5.161243734285294 0.2883267558234648 Q 5.196469175042006 0.2883267558234648 5.223866740075005 0.30137321536298806 Q 5.251264305108005 0.3144196749025114 5.251264305108005 0.34312188588946263 Q 5.251264305108005 0.35877763733689055 5.242131783430338 0.3770426806922232 Q 5.230389969844767 0.4018309538173174 5.202992404811768 0.42140064312660236 Q 5.201687758857815 0.4227052890805547 5.199078466949911 0.4227052890805547 Q 5.188641299318292 0.4227052890805547 5.188641299318292 0.4135727674028884 Q 5.188641299318292 0.40704953763312673 5.195164529088054 0.4005263078633651 Q 5.205601696719673 0.3913937861856988 5.212124926489435 0.3783473266461755 Q 5.218648156259196 0.3653008671066522 5.218648156259196 0.35355905352108125 Q 5.218648156259196 0.3300754263499393 5.191250591226197 0.3300754263499393 Q 5.171680901916912 0.3300754263499393 5.145587982837865 0.3372509790966771 Q 5.119495063758819 0.34442653184341493 5.095359113610701 0.3542113764980574 Q 5.071223163462583 0.36399622115269986 5.055567412015155 0.3718240968764139 Q 5.022951263166346 0.3874798483238418 4.995553698133348 0.4103111525180076 Q 4.968156133100349 0.43314245671217333 4.943367859975255 0.4670632515149339 Q 4.9264074625738745 0.48924223273212347 4.9264074625738745 0.5088119220414085 Q 4.9264074625738745 0.5322955492125504 4.957718965468731 0.5518652385218353 Q 4.9903351143175385 0.5701302818771679 5.02229894018937 0.5870906792785482 Q 5.0542627660612025 0.6040510766799285 5.076441747278392 0.6236207659892135 Q 5.098620728495582 0.6431904552984984 5.098620728495582 0.6705880203314973 Q 5.098620728495582 0.7005948772724009 5.0607859958309644 0.7423435477988753 Q 5.037302368659822 0.768436466877922 4.997510667064276 0.7919200940490639 Q 4.957718965468731 0.8154037212202059 4.913361003034351 0.8297548267136815 Q 4.869003040599972 0.8441059322071571 4.832472953889306 0.8441059322071571" fill="#000000" fill-rule="nonzero"></path></g><g></g><g clip-path="url(&quot;#SvgjsClipPath1002&quot;)"><g clip-path="url(&quot;#a579420f0-5f87-4f4b-9962-99e68aa622fa0f1a3d65-f084-4388-8abd-e22abc075ec0&quot;)"><path d=" M 5.91154528916505 -1.1612462078625374 C 5.91154528916505 -1.2746327550122152 5.819627331375172 -1.3665507128020935 5.706240784225494 -1.3665507128020935 C 5.701211276510169 -1.3665507128020935 5.6962572114105745 -1.366123204646291 5.69130314631098 -1.365796286644795 L 5.60124981066809 -1.365796286644795 L 5.60124981066809 -2.351378618539832 L 5.268899940839431 -2.351378618539832 L 5.268899940839431 -2.0949994627511535 L 4.947011447058647 -2.0949994627511535 L 4.947011447058647 -1.868244107405737 L 4.635534034248586 -1.9881224238005024 L 4.635534034248586 -2.0949994627511535 L 4.3135952453906485 -2.0949994627511535 L 4.3135952453906485 -2.351378618539832 L 3.9812956706391427 -2.351378618539832 L 3.9812956706391427 -1.8781522376049269 L 3.501103421518512 -1.8781522376049269 L 3.501103421518512 -1.365796286644795 L 1.2051834445499194 -1.365796286644795 C 1.1928798603602246 -1.4006527540838438 1.1599654063211884 -1.4239889811366124 1.123001288481513 -1.4240631335268321 C 1.095324374185276 -1.4240107130646151 1.069315325900387 -1.4108242095746446 1.0529150984684619 -1.3885296615180627 C 1.0365148710365377 -1.4108242095746446 1.010505822751649 -1.4240107130646151 0.9828289084554127 -1.4240631335268321 C 0.9551598919914979 -1.4240067635333034 0.9291601586491851 -1.4108202512530854 0.9127678659809384 -1.3885296615180627 C 0.8963676385490129 -1.4108242095746446 0.8703585902641244 -1.4240107130646151 0.8426816759678879 -1.4240631335268321 C 0.8057175581282132 -1.4239889811366124 0.7728031040891763 -1.4006527540838438 0.7604995198994822 -1.365796286644795 L 0.6603871688259424 -1.365796286644795 C 0.5866797332578579 -1.7692885431067227 0.301129432720296 -2.070229137253179 -0.04017296084164146 -2.070229137253179 C -0.43740348019798975 -2.070229137253179 -0.7594177116716567 -1.6627384221575678 -0.7594177116716567 -1.1601145686265892 C -0.7594177116716567 -0.6574907150956111 -0.43740348019798975 -0.25 -0.04017296084164146 -0.25 C 0.30133061302890907 -0.25 0.587031798797931 -0.5512926596865289 0.6605129065188258 -0.9551872767656824 L 0.7609521755938606 -0.9551872767656824 C 0.7737389263877004 -0.9211143253292895 0.8062885072686252 -0.8985199085700997 0.8426816759678879 -0.8984544297368195 C 0.8714756076381225 -0.8984544297368195 0.8967991789847818 -0.912511903801152 0.9127678659809384 -0.9339627542070119 C 0.9291654915526195 -0.9116816572080055 0.9551643669012206 -0.8985049120564534 0.982828908455412 -0.8984544297368195 C 1.0116228401256464 -0.8984544297368195 1.036946411472306 -0.912511903801152 1.0529150984684625 -0.9339627542070119 C 1.0693179830521715 -0.9116745393928176 1.0953278836411882 -0.8984969363674529 1.123001288481513 -0.8984544297368195 C 1.1604711209606828 -0.8984544297368195 1.192207314644382 -0.9221182635374223 1.2047307888555403 -0.9551872767656824 L 5.706240784225494 -0.9551872767656824 L 5.706240784225494 -0.9559417029229813 C 5.760690924373809 -0.9559417029229811 5.81291092854097 -0.977571936876199 5.851412991876401 -1.01607400021163 C 5.889915055211832 -1.0545760635470611 5.91154528916505 -1.106796067714223 5.91154528916505 -1.1612462078625374 M 0.33382123286990706 -1.1601145686265895 C 0.33382123286990706 -0.8592242695572863 0.15907098730094882 -0.5952757046570436 -0.04017296084164146 -0.5952757046570436 C -0.23939176144565433 -0.5952757046570436 -0.41416715455319003 -0.8592242695572863 -0.41416715455319003 -1.1601145686265892 C -0.41416715455319003 -1.4610300152344688 -0.23939176144565555 -1.7249785801347115 -0.04017296084164146 -1.7249785801347115 C 0.15907098730094882 -1.7249785801347115 0.33382123286990706 -1.4610300152344688 0.33382123286990706 -1.1601145686265892 M 4.222385122973234 -2.0822245131542285 L 4.072505793056557 -2.0822245131542285 L 4.072505793056557 -2.2358759738573992 L 4.222385122973234 -2.2358759738573992 Z M 4.222385122973234 -1.7786685749958033 L 4.072505793056557 -1.7786685749958033 L 4.072505793056557 -1.9323703307761275 L 4.222385122973234 -1.9323703307761275 Z M 4.222385122973234 -1.4751629319145314 L 4.072505793056557 -1.4751629319145314 L 4.072505793056557 -1.6288143926177026 L 4.222385122973234 -1.6288143926177026 Z M 5.0915092037199265 -1.8151576534704845 L 5.006133310252289 -1.8151576534704845 L 5.006133310252289 -1.9953397673719935 L 5.0915092037199265 -1.9953397673719935 Z M 5.0915092037199265 -1.4593451301498352 L 5.006133310252289 -1.4593451301498352 L 5.006133310252289 -1.6394518014356143 L 5.0915092037199265 -1.6394518014356143 Z M 5.220239453693664 -1.8151576534704845 L 5.134863560226027 -1.8151576534704845 L 5.134863560226027 -1.9953397673719935 L 5.220239453693664 -1.9953397673719935 Z M 5.220239453693664 -1.4593451301498352 L 5.134863560226027 -1.4593451301498352 L 5.134863560226027 -1.6394518014356143 L 5.220239453693664 -1.6394518014356143 Z" fill="url(#gradient-b4aad590-d7c1-487a-9a22-05a1d7b5b9c5_0)" transform="matrix(1,0,0,1,0,0)" fill-rule="nonzero"></path></g></g></g><defs><clipPath id="SvgjsClipPath1002"><path d=" M -0.7594177116716567 -2.3513650112984283 h 6.670973391385542 v 2.1013650112984283 h -6.670973391385542 Z"></path></clipPath><clipPath id="a579420f0-5f87-4f4b-9962-99e68aa622fa0f1a3d65-f084-4388-8abd-e22abc075ec0"><path d=" M -0.7594177116716567 -0.25 L 5.91154528916505 -0.25 L 5.91154528916505 -2.351353471001256 L -0.7594177116716567 -2.351353471001256 Z"></path></clipPath><linearGradient id="gradient-b4aad590-d7c1-487a-9a22-05a1d7b5b9c5_0" x1="0" x2="1" y1="0" y2="1"><stop stop-color="#c84449" offset="0"></stop><stop stop-color="#382d5e" offset="1"></stop></linearGradient></defs></svg>